# Blender 5.1.0
# www.blender.org
mtllib SimpleStair.mtl
o SM_Stair
v -3.000000 0.000000 0.000000
v -3.000000 -29.999998 0.000000
v 0.000000 0.000000 2.000000
v 0.000000 -29.999998 2.000000
v 0.000000 0.000000 0.000000
v 0.000000 -29.999998 0.000000
v -0.272727 0.000000 1.818182
v -0.272727 -29.999998 1.818182
v -0.545455 0.000000 1.636363
v -0.545455 -29.999998 1.636363
v -0.818182 0.000000 1.454545
v -0.818182 -29.999998 1.454545
v -1.090909 0.000000 1.272727
v -1.090909 -29.999998 1.272727
v -1.363636 0.000000 1.090909
v -1.363636 -29.999998 1.090909
v -1.636364 0.000000 0.909091
v -1.636364 -29.999998 0.909091
v -1.909091 0.000000 0.727273
v -1.909091 -29.999998 0.727273
v -2.181818 0.000000 0.545455
v -2.181818 -29.999998 0.545455
v -2.454546 0.000000 0.363636
v -2.454546 -29.999998 0.363636
v -2.727273 0.000000 0.181818
v -2.727273 -29.999998 0.181818
v -2.706002 0.000000 0.363637
v -2.727273 0.000000 0.342366
v -2.727273 -29.999998 0.342366
v -2.706002 -29.999998 0.363637
v -1.887821 0.000000 0.909091
v -1.909091 0.000000 0.887820
v -1.909091 -29.999998 0.887820
v -1.887821 -29.999998 0.909091
v -1.615093 0.000000 1.090909
v -1.636364 0.000000 1.069639
v -1.636364 -29.999998 1.069639
v -1.615093 -29.999998 1.090909
v -1.342366 0.000000 1.272727
v -1.363636 0.000000 1.251457
v -1.363636 -29.999998 1.251457
v -1.342366 -29.999998 1.272727
v -1.069639 0.000000 1.454545
v -1.090909 0.000000 1.433275
v -1.090909 -29.999998 1.433275
v -1.069639 -29.999998 1.454545
v -0.796911 0.000000 1.636364
v -0.818182 0.000000 1.615093
v -0.818182 -29.999998 1.615093
v -0.796911 -29.999998 1.636364
v -0.524184 0.000000 1.818182
v -0.545455 0.000000 1.796911
v -0.545455 -29.999998 1.796911
v -0.524184 -29.999998 1.818182
v -2.160548 0.000000 0.727273
v -2.181818 0.000000 0.706002
v -2.181818 -29.999998 0.706002
v -2.160548 -29.999998 0.727273
v -2.433275 0.000000 0.545455
v -2.454546 0.000000 0.524184
v -2.454546 -29.999998 0.524184
v -2.433275 -29.999998 0.545455
v -2.978730 0.000000 0.181818
v -3.000000 0.000000 0.160548
v -2.978730 -29.999998 0.181818
v -3.000000 -29.999998 0.160548
v -0.251457 0.000000 2.000000
v -0.272727 0.000000 1.978729
v -0.272727 -29.999998 1.978729
v -0.251457 -29.999998 2.000000
v -3.000000 0.000000 -0.284983
v -3.000000 -29.999998 -0.284983
v 0.000000 -29.999998 1.458299
v 0.000000 0.000000 1.458299
vn -1.0000 -0.0000 -0.0000
vn -0.0000 -1.0000 -0.0000
vn -0.0000 1.0000 -0.0000
vn -0.0000 -0.0000 1.0000
vn -0.7071 -0.0000 0.7071
vn 1.0000 -0.0000 -0.0000
vt 0.057222 0.001992
vt 0.057222 0.622031
vt 0.037313 0.622031
vt 0.037313 0.001992
vt 0.763137 0.964188
vt 0.763137 0.995370
vt 0.760500 0.998008
vt 0.740590 0.998008
vt 0.734513 0.998008
vt 0.711966 0.964188
vt 0.731875 0.964188
vt 0.734513 0.966826
vt 0.097766 0.622031
vt 0.066583 0.622031
vt 0.066583 0.001992
vt 0.097766 0.001992
vt 0.107125 0.622031
vt 0.107125 0.001992
vt 0.138308 0.001992
vt 0.138308 0.622031
vt 0.145030 0.001992
vt 0.164939 0.001992
vt 0.164939 0.622031
vt 0.145030 0.622031
vt 0.174696 0.622031
vt 0.174696 0.001992
vt 0.205879 0.001992
vt 0.205879 0.622031
vt 0.215238 0.622031
vt 0.215238 0.001992
vt 0.246421 0.001992
vt 0.246421 0.622031
vt 0.253143 0.001992
vt 0.273052 0.001992
vt 0.273052 0.622031
vt 0.253143 0.622031
vt 0.282809 0.622031
vt 0.282809 0.001992
vt 0.313992 0.001992
vt 0.313992 0.622031
vt 0.320714 0.001992
vt 0.340623 0.001992
vt 0.340623 0.622031
vt 0.320714 0.622031
vt 0.347742 0.001992
vt 0.367651 0.001992
vt 0.367651 0.622031
vt 0.347742 0.622031
vt 0.377408 0.622031
vt 0.377408 0.001992
vt 0.408591 0.001992
vt 0.408591 0.622031
vt 0.415313 0.001992
vt 0.435222 0.001992
vt 0.435222 0.622031
vt 0.415313 0.622031
vt 0.444979 0.622031
vt 0.444979 0.001992
vt 0.476161 0.001992
vt 0.476161 0.622031
vt 0.482884 0.001992
vt 0.502793 0.001992
vt 0.502793 0.622031
vt 0.482884 0.622031
vt 0.512550 0.622031
vt 0.512550 0.001992
vt 0.543732 0.001992
vt 0.543732 0.622031
vt 0.550454 0.001992
vt 0.570363 0.001992
vt 0.570363 0.622031
vt 0.550454 0.622031
vt 0.580120 0.622031
vt 0.580120 0.001992
vt 0.611303 0.001992
vt 0.611303 0.622031
vt 0.618025 0.001992
vt 0.637934 0.001992
vt 0.637934 0.622031
vt 0.618025 0.622031
vt 0.647691 0.622031
vt 0.647691 0.001992
vt 0.678874 0.001992
vt 0.678874 0.622031
vt 0.685596 0.001992
vt 0.705505 0.001992
vt 0.705505 0.622031
vt 0.685596 0.622031
vt 0.715262 0.622031
vt 0.715262 0.001992
vt 0.746444 0.001992
vt 0.746444 0.622031
vt 0.753166 0.001992
vt 0.773076 0.001992
vt 0.773076 0.622031
vt 0.753166 0.622031
vt 0.966059 0.659805
vt 0.988606 0.625985
vt 0.988606 0.657167
vt 0.985968 0.659805
vt 0.943512 0.693625
vt 0.966059 0.690988
vt 0.963421 0.693625
vt 0.920965 0.727446
vt 0.943512 0.724808
vt 0.940874 0.727446
vt 0.898418 0.761266
vt 0.920965 0.758628
vt 0.918328 0.761266
vt 0.875872 0.795086
vt 0.898418 0.792448
vt 0.895781 0.795086
vt 0.853325 0.828907
vt 0.875872 0.826269
vt 0.873234 0.828907
vt 0.830778 0.862727
vt 0.853325 0.860089
vt 0.850687 0.862727
vt 0.808231 0.896547
vt 0.830778 0.893909
vt 0.828140 0.896547
vt 0.785684 0.930367
vt 0.808231 0.927730
vt 0.805593 0.930367
vt 0.785684 0.961550
vt 0.783046 0.964188
vt 0.740590 0.625985
vt 0.689419 0.930367
vt 0.709328 0.930367
vt 0.711966 0.933005
vt 0.666872 0.896547
vt 0.686781 0.896547
vt 0.689419 0.899185
vt 0.644325 0.862727
vt 0.664235 0.862727
vt 0.666872 0.865365
vt 0.621779 0.828907
vt 0.641688 0.828907
vt 0.644325 0.831544
vt 0.599232 0.795086
vt 0.619141 0.795086
vt 0.621779 0.797724
vt 0.576685 0.761266
vt 0.596594 0.761266
vt 0.599232 0.763904
vt 0.554138 0.727446
vt 0.574047 0.727446
vt 0.576685 0.730083
vt 0.531591 0.693625
vt 0.551500 0.693625
vt 0.554138 0.696263
vt 0.509044 0.659805
vt 0.528953 0.659805
vt 0.531591 0.662443
vt 0.486497 0.998008
vt 0.486497 0.625985
vt 0.506406 0.625985
vt 0.509044 0.628622
vt 0.172058 0.622031
vt 0.172058 0.001992
vt 0.374770 0.622031
vt 0.374770 0.001992
vt 0.442341 0.622031
vt 0.442341 0.001992
vt 0.509912 0.622031
vt 0.509912 0.001992
vt 0.577482 0.622031
vt 0.577482 0.001992
vt 0.645053 0.622031
vt 0.645053 0.001992
vt 0.712624 0.622031
vt 0.712624 0.001992
vt 0.280172 0.622031
vt 0.280172 0.001992
vt 0.212601 0.622031
vt 0.212601 0.001992
vt 0.104488 0.622031
vt 0.104488 0.001992
vt 0.063945 0.622031
vt 0.063945 0.001992
vt 0.001973 0.622031
vt 0.001973 0.001992
vt 0.780195 0.622031
vt 0.780195 0.001992
vt 0.847370 0.001992
vt 0.847370 0.622031
s 1
usemtl lambert1
f 66/1/1 64/2/1 1/3/1 2/4/1
f 26/5/2 65/6/2 66/7/2 2/8/2
f 3/9/3 7/10/3 68/11/3 67/12/3
f 3/13/4 67/14/4 70/15/4 4/16/4
f 63/17/4 65/18/4 26/19/4 25/20/4
f 26/21/1 29/22/1 28/23/1 25/24/1
f 27/25/4 30/26/4 24/27/4 23/28/4
f 59/29/4 62/30/4 22/31/4 21/32/4
f 24/33/1 61/34/1 60/35/1 23/36/1
f 55/37/4 58/38/4 20/39/4 19/40/4
f 22/41/1 57/42/1 56/43/1 21/44/1
f 20/45/1 33/46/1 32/47/1 19/48/1
f 31/49/4 34/50/4 18/51/4 17/52/4
f 18/53/1 37/54/1 36/55/1 17/56/1
f 35/57/4 38/58/4 16/59/4 15/60/4
f 16/61/1 41/62/1 40/63/1 15/64/1
f 39/65/4 42/66/4 14/67/4 13/68/4
f 14/69/1 45/70/1 44/71/1 13/72/1
f 43/73/4 46/74/4 12/75/4 11/76/4
f 12/77/1 49/78/1 48/79/1 11/80/1
f 47/81/4 50/82/4 10/83/4 9/84/4
f 10/85/1 53/86/1 52/87/1 9/88/1
f 51/89/4 54/90/4 8/91/4 7/92/4
f 8/93/1 69/94/1 68/95/1 7/96/1
f 8/97/2 4/98/2 70/99/2 69/100/2
f 10/101/2 8/97/2 54/102/2 53/103/2
f 12/104/2 10/101/2 50/105/2 49/106/2
f 14/107/2 12/104/2 46/108/2 45/109/2
f 16/110/2 14/107/2 42/111/2 41/112/2
f 18/113/2 16/110/2 38/114/2 37/115/2
f 20/116/2 18/113/2 34/117/2 33/118/2
f 22/119/2 20/116/2 58/120/2 57/121/2
f 24/122/2 22/119/2 62/123/2 61/124/2
f 26/5/2 24/122/2 30/125/2 29/126/2
f 26/5/2 2/8/2 6/127/2
f 26/5/2 6/127/2 24/122/2
f 24/122/2 6/127/2 22/119/2
f 22/119/2 6/127/2 20/116/2
f 20/116/2 6/127/2 18/113/2
f 18/113/2 6/127/2 16/110/2
f 16/110/2 6/127/2 14/107/2
f 14/107/2 6/127/2 12/104/2
f 12/104/2 6/127/2 10/101/2
f 10/101/2 6/127/2 8/97/2
f 8/97/2 6/127/2 4/98/2
f 7/10/3 9/128/3 52/129/3 51/130/3
f 9/128/3 11/131/3 48/132/3 47/133/3
f 11/131/3 13/134/3 44/135/3 43/136/3
f 13/134/3 15/137/3 40/138/3 39/139/3
f 15/137/3 17/140/3 36/141/3 35/142/3
f 17/140/3 19/143/3 32/144/3 31/145/3
f 19/143/3 21/146/3 56/147/3 55/148/3
f 21/146/3 23/149/3 60/150/3 59/151/3
f 23/149/3 25/152/3 28/153/3 27/154/3
f 5/155/3 7/10/3 3/9/3
f 1/156/3 64/157/3 63/158/3 25/152/3
f 1/156/3 25/152/3 5/155/3
f 5/155/3 25/152/3 23/149/3
f 5/155/3 23/149/3 21/146/3
f 5/155/3 21/146/3 19/143/3
f 5/155/3 19/143/3 17/140/3
f 5/155/3 17/140/3 15/137/3
f 5/155/3 15/137/3 13/134/3
f 5/155/3 13/134/3 11/131/3
f 5/155/3 11/131/3 9/128/3
f 5/155/3 9/128/3 7/10/3
f 27/25/5 28/159/5 29/160/5 30/26/5
f 31/49/5 32/161/5 33/162/5 34/50/5
f 35/57/5 36/163/5 37/164/5 38/58/5
f 39/65/5 40/165/5 41/166/5 42/66/5
f 43/73/5 44/167/5 45/168/5 46/74/5
f 47/81/5 48/169/5 49/170/5 50/82/5
f 51/89/5 52/171/5 53/172/5 54/90/5
f 55/37/5 56/173/5 57/174/5 58/38/5
f 59/29/5 60/175/5 61/176/5 62/30/5
f 63/17/5 64/177/5 66/178/5 65/18/5
f 67/14/5 68/179/5 69/180/5 70/15/5
f 2/4/1 1/3/1 71/181/1 72/182/1
f 3/183/6 4/184/6 73/185/6 74/186/6
